/* XPM */
static const char *orly[] = {
/* columns rows colors chars-per-pixel */
"100 100 20 1 ",
"  c black",
". c gray20",
"X c gray40",
"o c #CC0033",
"O c #CC3333",
"+ c #CC3366",
"@ c #CC6666",
"# c #FF6666",
"$ c #CC6699",
"% c #FF6699",
"& c gray60",
"* c #A7A7A7",
"= c #CC9999",
"- c #FF99CC",
"; c gray80",
": c LightGray",
"> c #FFCCCC",
", c gray88",
"< c #E4E4E4",
"1 c white",
/* pixels */
"1111111111111111111111111111111111111111111111111111111111111111111111111111111111111111111111111111",
"1111111111111111111111111111111111111111111111111111111111111111111111111111111111111111111111111111",
"1111111111111111111111111111111111111111111111111111111111111111111111111111111111111111111111111111",
"1111111111111111111111111111111111111111111111111111111111111111111111111111111111111111111111111111",
"1111111111111111111111111111111111111111111111111111111111111111111111111111111111111111111111111111",
"1111111111111111111111111111111111111111111111111111111111111111111111111111111111111111111111111111",
"1111111111111111111111111111111111111111111111111111111111111111111111111111111111111111111111111111",
"1111111111111111111111111111111111111111111111111111111111111111111111111111111111111111111111111111",
"1111111111111111111111111111111111111111111111111111111111111111111111111111111111111111111111111111",
"1111111111111111111111111111111111111111111111111111111111111111111111111111111111111111111111111111",
"1111111111111111111111111111111111111111111111111111111111111111111111111111111111111111111111111111",
"1111111111111111111111111111111111111111111111111111111111111111111111111111111111111111111111111111",
"1111111111111111111111111111111111111111111111111111111111111111111111111111111111111111111111111111",
"1111111111111111111111111111111111111111111111111111111111111111111111111111111111111111111111111111",
"1111111111111111111111111111111111111111111111111111111111111111111111111111111111111111111111111111",
"1111111111111111111111111111111111111111111111111111111111111111111111111111111111111111111111111111",
"1111111111111111111111111111111111111111111111111111111111111111111111111111111111111111111111111111",
"1111111111111111111111111111111111111111111111111111111111111111111111111111111111111111111111111111",
"1111111111111111111111111111111111111111111111111111111111111111111111111111111111111111111111111111",
"1111111111111111111111111111111111111111111111111111111111111111111111111111111111111111111111111111",
"1111111111111111111111111111111111111111111111111111111111111111111111111111111111111111111111111111",
"1111111111111111111111111111111111111111111111111111111111111111111111111111111111111111111111111111",
"1111111111111111111111111111111111111111111111111111111111111111111111111111111111111111111111111111",
"1111111111111111111111111111111111111111111111111111111111111111111111111111111111111111111111111111",
"1111111111111111111111111111111111111111111111111111111111111111111111111111111111111111111111111111",
"1111111111111111111111111111111111111111111111111111111111111111111111111111111111111111111111111111",
"1111111111111111111111111111111111111111111111111111111111111111111111111111111111111111111111111111",
"1111111111111111111111111111111111111111111111111111111111111111111111111111111111111111111111111111",
"1111111111111111111111111111111111111111111111111111111111111111111111111111111111111111111111111111",
"1111111111111111111111111111111111111111111111111111111111111111111111111111111111111111111111111111",
"1111111111111111111111111111111111111111111111111111111111111111111111111111111111111111111111111111",
"1111111111111111111111111111111111111111111111111111111111111111111111111111111111111111111111111111",
"1111111111111111111111111111111111111111111111111111111111111111111111111111111111111111111111111111",
"1111111111111111111111111111111111111111111111111111111111111111111111111111111111111111111111111111",
"1111111111111111111111111111111111111111111111111111111111111111111111111111111111111111111111111111",
"1111111111111111111111111111111111111111111111111111111111111111111111111111111111111111111111111111",
"1111111111111111111111111111111111111111111111111111111111111111111111111111111111111111111111111111",
"1111111111;XX.. ..X&111111111111$#$@-111&XXXXXXXX&111111111111XXX&1111111&...X1111111111111X...&1111",
"11111111&.           .;111111111oooo%111.          X;111111111   .11111111.   X11111111111X    11111",
"111111;.               X11111111oooo=111X            &11111111   X111111111    &111111111&    ;11111",
"11111&      .X&&XX.     .1111111oooo%111X   XXXX.     ;1111111   X111111111&    ;1111111;    &111111",
"1111&     &11111111;.    .111111oooo=111X   111111.   .1111111   X1111111111X   .1111111.   X1111111",
"1111    .111111111111&    .11111>-+o%111X   1111111.   1111111   X11111111111.   .11111.   .11111111",
"111.   .11111111111111;    &111111+o=111X   1111111X   &111111   X111111111111.   X111X    111111111",
"11;    1111111111111111&    111111oo1111X   1111111&   &111111   X111111111111;    &1&    ;111111111",
"11.   &11111111111111111.   &111-Oo@1111X   1111111X   &111111   X1111111111111&    &    &1111111111",
"1;.   111111111111111111&   X111oo@11111X   1111111.   1111111   X11111111111111X       X11111111111",
"1X   X1111111111111111111    111=>111111X   111111.   .1111111   X111111111111111.     .111111111111",
"1.   &1111111111111111111.   11111111111X   &X&&..    ;1111111   X1111111111111111.    1111111111111",
"1    ;1111111111111111111X   11111111111X            &11111111   X1111111111111111&   &1111111111111",
"1    &1111111111111111111X   11111111111X          X1111111111   X1111111111111111&   &1111111111111",
"1    &1111111111111111111.   11111111111X   . .    .1111111111   X1111111111111111&   &1111111111111",
"1X   &1111111111111111111.   11111111111X   ;11;    .111111111   X1111111111111111&   &1111111111111",
"1&   .111111111111111111;   .11111111111X   11111.   .11111111   X1111111111111111&   &1111111111111",
"11.   ;11111111111111111X   X11111111111X   111111.   X1111111   X1111111111111111&   &1111111111111",
"11&   .1111111111111111;    111111111111X   1111111    ;111111   X1111111111111111&   &1111111111111",
"111    X111111111111111.   X111111111111X   1111111&   .111111   X1111111111111111&   &1111111111111",
"111&    &1111111111111.    1111111111111X   11111111.   X11111   X1111111111111111&   &1111111111111",
"1111X    X;111111111&.    ;1111111111111X   111111111    ;1111   X1111111111111111&   &1111111111111",
"11111.     X&1111;X.     &11111111111111X   111111111&   .1111   .;&;&;&;&;&;11111&   &1111111111111",
"111111X                 ;111111111111111X   1111111111.   X111               &1111&   &1111111111111",
"1111111&.             X11111111111111111X   11111111111    ;11               :1111*   &1111111111111",
"111111111&X.      ..X1111111111111111111X ..11111111111& . .11 . . . . . . . ,1111,...;1111111111111",
"111111111111&&.XX&;1111111111111111111111;;;111111111111;;;;11;;;;;;;;;;;;;;;11111<;1111111111111111",
"1111111111111111111111111111111111111111111111111111111111111111111111111111111111111111111111111111",
"1111111111111111111111111111111111111111111111111111111111111111111111111111111111111111111111111111",
"1111111111111111111111111111111111111111111111111111111111111111111111111111111111111111111111111111",
"1111111111111111111111111111111111111111111111111111111111111111111111111111111111111111111111111111",
"1111111111111111111111111111111111111111111111111111111111111111111111111111111111111111111111111111",
"1111111111111111111111111111111111111111111111111111111111111111111111111111111111111111111111111111",
"1111111111111111111111111111111111111111111111111111111111111111111111111111111111111111111111111111",
"1111111111111111111111111111111111111111111111111111111111111111111111111111111111111111111111111111",
"1111111111111111111111111111111111111111111111111111111111111111111111111111111111111111111111111111",
"1111111111111111111111111111111111111111111111111111111111111111111111111111111111111111111111111111",
"1111111111111111111111111111111111111111111111111111111111111111111111111111111111111111111111111111",
"1111111111111111111111111111111111111111111111111111111111111111111111111111111111111111111111111111",
"1111111111111111111111111111111111111111111111111111111111111111111111111111111111111111111111111111",
"1111111111111111111111111111111111111111111111111111111111111111111111111111111111111111111111111111",
"1111111111111111111111111111111111111111111111111111111111111111111111111111111111111111111111111111",
"1111111111111111111111111111111111111111111111111111111111111111111111111111111111111111111111111111",
"1111111111111111111111111111111111111111111111111111111111111111111111111111111111111111111111111111",
"1111111111111111111111111111111111111111111111111111111111111111111111111111111111111111111111111111",
"1111111111111111111111111111111111111111111111111111111111111111111111111111111111111111111111111111",
"1111111111111111111111111111111111111111111111111111111111111111111111111111111111111111111111111111",
"1111111111111111111111111111111111111111111111111111111111111111111111111111111111111111111111111111",
"1111111111111111111111111111111111111111111111111111111111111111111111111111111111111111111111111111",
"1111111111111111111111111111111111111111111111111111111111111111111111111111111111111111111111111111",
"1111111111111111111111111111111111111111111111111111111111111111111111111111111111111111111111111111",
"1111111111111111111111111111111111111111111111111111111111111111111111111111111111111111111111111111",
"1111111111111111111111111111111111111111111111111111111111111111111111111111111111111111111111111111",
"1111111111111111111111111111111111111111111111111111111111111111111111111111111111111111111111111111",
"1111111111111111111111111111111111111111111111111111111111111111111111111111111111111111111111111111",
"1111111111111111111111111111111111111111111111111111111111111111111111111111111111111111111111111111",
"1111111111111111111111111111111111111111111111111111111111111111111111111111111111111111111111111111",
"1111111111111111111111111111111111111111111111111111111111111111111111111111111111111111111111111111",
"1111111111111111111111111111111111111111111111111111111111111111111111111111111111111111111111111111",
"1111111111111111111111111111111111111111111111111111111111111111111111111111111111111111111111111111",
"1111111111111111111111111111111111111111111111111111111111111111111111111111111111111111111111111111",
"1111111111111111111111111111111111111111111111111111111111111111111111111111111111111111111111111111",
"1111111111111111111111111111111111111111111111111111111111111111111111111111111111111111111111111111"
};
